<mxfile host="app.diagrams.net" modified="2024-01-09T11:13:06.720Z" agent="Mozilla/5.0 (X11; Ubuntu; Linux x86_64; rv:121.0) Gecko/20100101 Firefox/121.0" etag="Cuh0Zg17XUMH-mBmL0zy" version="22.1.17" type="github">
  <diagram name="Page-1" id="Z4D-REcWQsaUOZwEIkcD">
    <mxGraphModel dx="1420" dy="1575" grid="1" gridSize="10" guides="1" tooltips="1" connect="1" arrows="1" fold="1" page="1" pageScale="1" pageWidth="1100" pageHeight="850" math="0" shadow="0">
      <root>
        <mxCell id="0" />
        <mxCell id="1" parent="0" />
        <mxCell id="WRyrR3sKkJGf3UOGzim1-2" value="&lt;font style=&quot;font-size: 16px;&quot;&gt;Certificate&lt;/font&gt;" style="rounded=0;whiteSpace=wrap;html=1;strokeColor=#BAC8D3;fontColor=#EEEEEE;fillColor=#09555B;fontSize=16;" vertex="1" parent="1">
          <mxGeometry x="880" y="380" width="120" height="60" as="geometry" />
        </mxCell>
        <mxCell id="WRyrR3sKkJGf3UOGzim1-3" value="issued by" style="rhombus;whiteSpace=wrap;html=1;strokeColor=#BAC8D3;fontColor=#EEEEEE;fillColor=#09555B;fontSize=16;direction=south;rounded=0;" vertex="1" parent="1">
          <mxGeometry x="630" y="210.5" width="100" height="95" as="geometry" />
        </mxCell>
        <mxCell id="WRyrR3sKkJGf3UOGzim1-5" value="Issuer Certificate" style="rounded=0;whiteSpace=wrap;html=1;strokeColor=#BAC8D3;fontColor=#EEEEEE;fillColor=#09555B;fontSize=16;" vertex="1" parent="1">
          <mxGeometry x="380" y="580" width="120" height="60" as="geometry" />
        </mxCell>
        <mxCell id="WRyrR3sKkJGf3UOGzim1-8" value="Login" style="rounded=0;whiteSpace=wrap;html=1;strokeColor=#BAC8D3;fontColor=#EEEEEE;fillColor=#09555B;fontSize=16;" vertex="1" parent="1">
          <mxGeometry x="365" y="-60" width="120" height="60" as="geometry" />
        </mxCell>
        <mxCell id="WRyrR3sKkJGf3UOGzim1-10" value="&lt;font style=&quot;font-size: 16px;&quot;&gt;Audit trail/logs&lt;/font&gt;" style="rounded=0;whiteSpace=wrap;html=1;strokeColor=#BAC8D3;fontColor=#EEEEEE;fillColor=#09555B;" vertex="1" parent="1">
          <mxGeometry x="770" y="-170" width="120" height="60" as="geometry" />
        </mxCell>
        <mxCell id="WRyrR3sKkJGf3UOGzim1-13" value="Is used" style="rhombus;whiteSpace=wrap;html=1;strokeColor=#BAC8D3;fontColor=#EEEEEE;fillColor=#09555B;fontSize=16;direction=south;rounded=0;" vertex="1" parent="1">
          <mxGeometry x="1280" y="100" width="100" height="95" as="geometry" />
        </mxCell>
        <mxCell id="WRyrR3sKkJGf3UOGzim1-14" value="if Revoked" style="rhombus;whiteSpace=wrap;html=1;strokeColor=#BAC8D3;fontColor=#EEEEEE;fillColor=#09555B;fontSize=16;direction=south;rounded=0;" vertex="1" parent="1">
          <mxGeometry x="1280" y="260" width="100" height="95" as="geometry" />
        </mxCell>
        <mxCell id="WRyrR3sKkJGf3UOGzim1-15" value="&lt;font style=&quot;font-size: 16px;&quot;&gt;Certificate&lt;/font&gt; Usage" style="rounded=0;whiteSpace=wrap;html=1;strokeColor=#BAC8D3;fontColor=#EEEEEE;fillColor=#09555B;fontSize=16;" vertex="1" parent="1">
          <mxGeometry x="1500" y="110" width="120" height="60" as="geometry" />
        </mxCell>
        <mxCell id="WRyrR3sKkJGf3UOGzim1-16" value="&lt;font style=&quot;font-size: 16px;&quot;&gt;Certificate&lt;/font&gt; Revocation Data" style="rounded=0;whiteSpace=wrap;html=1;strokeColor=#BAC8D3;fontColor=#EEEEEE;fillColor=#09555B;fontSize=16;" vertex="1" parent="1">
          <mxGeometry x="1490" y="280" width="140" height="60" as="geometry" />
        </mxCell>
        <mxCell id="WRyrR3sKkJGf3UOGzim1-20" value="Attribute" style="ellipse;whiteSpace=wrap;html=1;align=center;strokeColor=#BAC8D3;fontColor=#EEEEEE;fillColor=#09555B;rounded=0;" vertex="1" parent="1">
          <mxGeometry x="930" y="-240" width="100" height="40" as="geometry" />
        </mxCell>
        <mxCell id="WRyrR3sKkJGf3UOGzim1-25" value="Issuer" style="rounded=0;arcSize=10;whiteSpace=wrap;html=1;align=center;strokeColor=#BAC8D3;fontColor=#EEEEEE;fillColor=#09555B;" vertex="1" parent="1">
          <mxGeometry x="370" y="220" width="100" height="40" as="geometry" />
        </mxCell>
        <mxCell id="WRyrR3sKkJGf3UOGzim1-27" value="has" style="shape=rhombus;perimeter=rhombusPerimeter;whiteSpace=wrap;html=1;align=center;strokeColor=#BAC8D3;fontColor=#EEEEEE;fillColor=#09555B;rounded=0;" vertex="1" parent="1">
          <mxGeometry x="370" y="399" width="120" height="60" as="geometry" />
        </mxCell>
        <mxCell id="WRyrR3sKkJGf3UOGzim1-29" value="" style="edgeStyle=entityRelationEdgeStyle;fontSize=12;html=1;endArrow=ERoneToMany;startArrow=ERoneToMany;rounded=0;strokeColor=#0B4D6A;" edge="1" parent="1" source="WRyrR3sKkJGf3UOGzim1-9" target="WRyrR3sKkJGf3UOGzim1-10">
          <mxGeometry width="100" height="100" relative="1" as="geometry">
            <mxPoint x="730" y="150" as="sourcePoint" />
            <mxPoint x="830" y="50" as="targetPoint" />
          </mxGeometry>
        </mxCell>
        <mxCell id="WRyrR3sKkJGf3UOGzim1-30" value="" style="edgeStyle=entityRelationEdgeStyle;fontSize=12;html=1;endArrow=ERoneToMany;startArrow=ERoneToMany;rounded=0;strokeColor=#0B4D6A;" edge="1" parent="1" source="WRyrR3sKkJGf3UOGzim1-8" target="WRyrR3sKkJGf3UOGzim1-9">
          <mxGeometry width="100" height="100" relative="1" as="geometry">
            <mxPoint x="485" y="-30" as="sourcePoint" />
            <mxPoint x="670" y="-130" as="targetPoint" />
          </mxGeometry>
        </mxCell>
        <mxCell id="WRyrR3sKkJGf3UOGzim1-9" value="&lt;div style=&quot;font-size: 16px;&quot;&gt;&lt;font style=&quot;font-size: 16px;&quot;&gt;Activity&lt;/font&gt;&lt;/div&gt;&lt;div style=&quot;font-size: 16px;&quot;&gt;&lt;font style=&quot;font-size: 16px;&quot;&gt;record&lt;font style=&quot;font-size: 16px;&quot;&gt;&lt;br&gt;&lt;/font&gt;&lt;/font&gt;&lt;/div&gt;" style="rhombus;whiteSpace=wrap;html=1;strokeColor=#BAC8D3;fontColor=#EEEEEE;fillColor=#09555B;rounded=0;" vertex="1" parent="1">
          <mxGeometry x="580" y="-120" width="110" height="100" as="geometry" />
        </mxCell>
        <mxCell id="WRyrR3sKkJGf3UOGzim1-31" value="" style="edgeStyle=entityRelationEdgeStyle;fontSize=12;html=1;endArrow=ERmany;rounded=0;strokeColor=#0B4D6A;exitX=0.5;exitY=0;exitDx=0;exitDy=0;entryX=0;entryY=0.5;entryDx=0;entryDy=0;" edge="1" parent="1" source="WRyrR3sKkJGf3UOGzim1-26" target="WRyrR3sKkJGf3UOGzim1-8">
          <mxGeometry width="100" height="100" relative="1" as="geometry">
            <mxPoint x="730" y="150" as="sourcePoint" />
            <mxPoint x="830" y="50" as="targetPoint" />
            <Array as="points">
              <mxPoint x="330" y="40" />
              <mxPoint x="310" y="20" />
              <mxPoint x="300" y="20" />
              <mxPoint x="310" y="30" />
              <mxPoint x="310" y="-20" />
              <mxPoint x="320" y="20" />
            </Array>
          </mxGeometry>
        </mxCell>
        <mxCell id="WRyrR3sKkJGf3UOGzim1-32" value="" style="edgeStyle=entityRelationEdgeStyle;fontSize=12;html=1;endArrow=ERmany;rounded=0;strokeColor=#0B4D6A;entryX=0.5;entryY=1;entryDx=0;entryDy=0;" edge="1" parent="1" source="WRyrR3sKkJGf3UOGzim1-25" target="WRyrR3sKkJGf3UOGzim1-26">
          <mxGeometry width="100" height="100" relative="1" as="geometry">
            <mxPoint x="340" y="230" as="sourcePoint" />
            <mxPoint x="365" y="-30" as="targetPoint" />
          </mxGeometry>
        </mxCell>
        <mxCell id="WRyrR3sKkJGf3UOGzim1-26" value="&lt;div style=&quot;font-size: 15px;&quot;&gt;&lt;font style=&quot;font-size: 15px;&quot;&gt;Employee&lt;/font&gt;&lt;/div&gt;&lt;div style=&quot;font-size: 15px;&quot;&gt;&lt;font style=&quot;font-size: 15px;&quot;&gt;can&lt;font style=&quot;font-size: 15px;&quot;&gt;&lt;br&gt;&lt;/font&gt;&lt;/font&gt;&lt;/div&gt;" style="shape=rhombus;perimeter=rhombusPerimeter;whiteSpace=wrap;html=1;align=center;strokeColor=#BAC8D3;fontColor=#EEEEEE;fillColor=#09555B;rounded=0;" vertex="1" parent="1">
          <mxGeometry x="200" y="40" width="140" height="80" as="geometry" />
        </mxCell>
      </root>
    </mxGraphModel>
  </diagram>
</mxfile>
